<?xml version="1.0" encoding="UTF-8" standalone="no"?>
<!DOCTYPE svg PUBLIC "-//W3C//DTD SVG 1.1//EN" "http://www.w3.org/Graphics/SVG/1.1/DTD/svg11.dtd">
<svg width="100%" height="100%" viewBox="0 0 426 426" version="1.1" xmlns="http://www.w3.org/2000/svg" xmlns:xlink="http://www.w3.org/1999/xlink" xml:space="preserve" xmlns:serif="http://www.serif.com/" style="fill-rule:evenodd;clip-rule:evenodd;stroke-linejoin:round;stroke-miterlimit:2;">
    <g>
        <path d="M59.274,342.786C60.063,343.033 60.852,343.28 61.641,343.527C62.895,343.919 64.018,343.956 65.021,343.695C101.108,399.489 201.911,421.26 278.899,400.232C365.964,376.453 420.381,298 400.444,225.004C389.489,184.895 358.364,154.78 318.1,139.729C317.833,124.737 321.075,95.513 346.699,72.834C348.687,74.431 351.211,75.387 353.96,75.387C360.368,75.387 365.562,70.193 365.562,63.786C365.562,57.378 360.368,52.184 353.96,52.184C347.552,52.184 342.358,57.378 342.358,63.786C342.358,67.082 343.733,70.057 345.94,72.169C320.338,94.89 316.893,124.075 317.097,139.358C302.696,134.084 287.146,130.729 270.946,129.521C273.784,114.823 280.946,97.002 297.859,82.032C299.847,83.63 302.372,84.586 305.12,84.586C311.528,84.586 316.722,79.392 316.722,72.985C316.722,66.577 311.528,61.383 305.12,61.383C298.713,61.383 293.519,66.577 293.519,72.985C293.519,76.281 294.893,79.256 297.1,81.368C280.012,96.534 272.794,114.579 269.945,129.449C250.84,128.131 230.848,129.798 210.784,134.823C210.687,134.847 210.59,134.871 210.494,134.895C210.365,134.928 210.237,134.96 210.108,134.993C209.848,135.059 209.588,135.125 209.328,135.192C209.196,135.226 209.064,135.26 208.933,135.294C208.79,135.332 208.646,135.37 208.503,135.407C208.313,135.457 208.125,135.507 207.935,135.557C207.828,135.586 207.72,135.615 207.613,135.643C207.317,135.723 207.021,135.803 206.725,135.884L206.7,135.89C206.333,135.991 205.966,136.092 205.6,136.194L205.557,136.206C205.198,136.307 204.838,136.408 204.479,136.511L204.458,136.517C199.997,137.792 195.543,139.231 191.111,140.826C209.852,119.833 234.491,71.074 238.554,59.021C243.946,43.027 235.352,25.689 219.357,20.297C203.362,14.905 186.025,23.499 180.633,39.494C177.219,49.619 169.678,89.153 168.66,118.171C152.663,94.005 125.982,64.522 117.858,57.696C104.936,46.837 85.657,48.51 74.798,61.433C63.939,74.355 65.612,93.634 78.535,104.492C88.961,113.253 141.415,145.695 166.994,151.114C101.56,183.441 46.897,247.05 51.746,305.12C42.322,309.249 35.183,308.785 26.422,311.079C24.753,311.516 23.122,312.241 22.176,313.806C12.371,330.026 52.348,340.615 59.274,342.786Z" style="fill:rgb(177,220,209);fill-rule:nonzero;"/>
        <path d="M400.444,225.004C389.489,184.895 358.364,154.78 318.1,139.729C318.207,145.707 318.871,149.423 318.896,149.558C318.948,149.829 318.77,150.091 318.499,150.143L318.404,150.152C318.169,150.152 317.96,149.985 317.914,149.745C317.887,149.605 317.182,145.665 317.097,139.358C302.696,134.084 287.146,130.729 270.946,129.521C267.77,145.97 270.009,158.506 270.057,158.758C270.108,159.029 269.93,159.29 269.659,159.342L269.564,159.351C269.329,159.351 269.12,159.184 269.074,158.945C269.026,158.691 266.763,146.05 269.945,129.449C253.512,128.315 236.423,129.4 219.198,132.919L219.202,132.911C215.914,133.582 212.622,134.342 209.328,135.192C209.196,135.226 209.064,135.26 208.933,135.294C208.79,135.332 208.646,135.37 208.503,135.407C208.313,135.457 208.125,135.507 207.935,135.557C207.828,135.586 207.72,135.615 207.613,135.643C207.317,135.723 207.021,135.803 206.725,135.884L206.7,135.89C206.333,135.991 205.966,136.092 205.6,136.194L205.557,136.206C205.198,136.307 204.838,136.408 204.479,136.511L204.458,136.517C199.996,137.792 195.541,139.234 191.107,140.831C186.746,145.715 182.705,149.095 179.316,150.159C177.508,151.774 174.375,152.187 170.299,151.679C169.257,151.55 168.153,151.359 166.994,151.114C101.56,183.441 46.897,247.05 51.746,305.12C42.322,309.249 35.183,308.785 26.422,311.079C24.753,311.516 23.122,312.241 22.176,313.806C12.371,330.026 52.348,340.615 59.274,342.786C60.063,343.033 60.852,343.28 61.641,343.527C62.895,343.919 64.018,343.956 65.021,343.695C78.02,363.792 99.415,379.473 125.07,390.33L125.084,390.336C125.981,390.716 126.883,391.089 127.791,391.457L127.829,391.472C128.113,391.588 128.397,391.702 128.684,391.817L128.743,391.84C129.347,392.081 129.953,392.32 130.561,392.555L130.569,392.559C130.866,392.674 131.163,392.788 131.46,392.902L131.51,392.921C132.43,393.272 133.355,393.618 134.285,393.957L134.291,393.959C165.168,405.239 201.13,409.952 235.705,407.458L235.708,407.461C249.464,406.469 262.998,404.332 275.908,401.016L275.889,401.001C276.893,400.744 277.904,400.504 278.899,400.232C365.964,376.453 420.381,298 400.444,225.004Z" style="fill:rgb(245,213,113);fill-rule:nonzero;"/>
        <path d="M51.746,305.12C42.322,309.249 35.183,308.785 26.422,311.079C24.753,311.516 23.122,312.241 22.176,313.806C12.371,330.026 52.348,340.615 59.274,342.786C60.063,343.033 60.852,343.28 61.641,343.527C62.895,343.919 64.018,343.956 65.021,343.695C60.298,336.393 56.684,328.508 54.376,320.06C53.032,315.138 52.166,310.15 51.746,305.12Z" style="fill:rgb(17,13,50);fill-rule:nonzero;"/>
        <path d="M131.131,327.155C111.261,276.107 113.422,221.381 129.617,173.831C108.18,189.51 89.427,208.324 75.665,228.535C71.826,262.414 75.313,297.83 88.471,331.633C96.816,353.073 108.445,372.306 122.379,389.167C141.44,397.586 162.992,403.28 185.276,406.086C162.295,384.774 143.251,358.293 131.131,327.155Z" style="fill:rgb(17,13,50);fill-rule:nonzero;"/>
        <path d="M179.316,150.159C177.508,151.774 174.375,152.187 170.299,151.679C150.345,201.774 146.056,261.314 167.554,316.545C182.061,353.813 206.483,384.413 235.708,407.461C249.464,406.469 262.998,404.332 275.908,401.016C247.773,378.207 224.312,348.286 210.214,312.068C186.63,251.48 194.083,185.711 219.202,132.911C215.914,133.582 212.622,134.342 209.328,135.192C209.196,135.226 209.064,135.26 208.933,135.294C208.79,135.332 208.646,135.37 208.503,135.407C208.313,135.457 208.125,135.507 207.935,135.557C207.828,135.586 207.72,135.615 207.613,135.643C207.317,135.723 207.021,135.803 206.725,135.884L206.7,135.89C206.333,135.991 205.966,136.092 205.6,136.194L205.557,136.206C205.198,136.307 204.838,136.408 204.479,136.511L204.458,136.517C199.996,137.792 195.541,139.234 191.107,140.831C186.746,145.715 182.705,149.095 179.316,150.159Z" style="fill:rgb(17,13,50);fill-rule:nonzero;"/>
        <path d="M269.074,158.945C269.12,159.184 269.329,159.351 269.564,159.351L269.659,159.342C269.93,159.29 270.108,159.029 270.057,158.758C270.009,158.506 267.77,145.97 270.946,129.521C273.784,114.823 280.946,97.002 297.859,82.032C299.847,83.63 302.372,84.586 305.12,84.586C311.528,84.586 316.722,79.392 316.722,72.985C316.722,66.577 311.528,61.383 305.12,61.383C298.713,61.383 293.519,66.577 293.519,72.985C293.519,76.281 294.893,79.256 297.1,81.368C280.012,96.534 272.794,114.579 269.945,129.449C266.763,146.05 269.026,158.691 269.074,158.945Z" style="fill:rgb(17,13,50);fill-rule:nonzero;"/>
        <path d="M318.404,150.152L318.499,150.143C318.77,150.091 318.948,149.829 318.896,149.558C318.871,149.423 318.207,145.707 318.1,139.729C317.833,124.737 321.075,95.513 346.699,72.834C348.687,74.431 351.211,75.387 353.96,75.387C360.368,75.387 365.562,70.193 365.562,63.786C365.562,57.378 360.368,52.184 353.96,52.184C347.552,52.184 342.358,57.378 342.358,63.786C342.358,67.082 343.733,70.057 345.94,72.169C320.338,94.89 316.893,124.075 317.097,139.358C317.182,145.665 317.887,149.605 317.914,149.745C317.96,149.985 318.169,150.152 318.404,150.152Z" style="fill:rgb(17,13,50);fill-rule:nonzero;"/>
        <path d="M262.878,228.481C252.2,230.203 244.937,240.241 246.656,250.902C248.375,261.564 258.424,268.809 269.104,267.087C279.782,265.365 287.045,255.327 285.326,244.666C283.607,234.005 273.557,226.759 262.878,228.481Z" style="fill:rgb(17,13,50);fill-rule:nonzero;"/>
        <path d="M241.709,266.269C233.131,267.652 227.05,274.185 228.126,280.861C229.203,287.537 237.03,291.828 245.608,290.444C254.187,289.061 260.268,282.528 259.191,275.852C258.114,269.176 250.288,264.885 241.709,266.269Z" style="fill:rgb(240,75,66);fill-rule:nonzero;"/>
        <path d="M372.274,231.004C370.555,220.343 360.505,213.097 349.827,214.819C339.148,216.541 331.885,226.579 333.604,237.24C335.324,247.901 345.374,255.147 356.052,253.425C366.73,251.703 373.994,241.665 372.274,231.004Z" style="fill:rgb(17,13,50);fill-rule:nonzero;"/>
        <path d="M381.8,244.036C373.222,245.419 367.141,251.953 368.217,258.629C369.294,265.305 377.121,269.595 385.699,268.212C394.277,266.829 400.359,260.295 399.282,253.619C398.206,246.943 390.379,242.653 381.8,244.036Z" style="fill:rgb(240,75,66);fill-rule:nonzero;"/>
        <path d="M320.599,255.137C320.054,255.225 319.683,255.738 319.771,256.283C320.428,260.358 318.15,264.126 314.695,264.684C311.226,265.241 307.892,262.379 307.235,258.306C307.147,257.76 306.631,257.386 306.089,257.478C305.544,257.565 305.173,258.078 305.261,258.623C306.021,263.338 309.734,266.753 313.835,266.753C314.225,266.753 314.619,266.722 315.014,266.658C319.558,265.925 322.578,261.129 321.745,255.965C321.657,255.42 321.145,255.047 320.599,255.137Z" style="fill:rgb(17,13,50);fill-rule:nonzero;"/>
        <path d="M179.316,150.159C177.944,150.591 176.678,150.642 175.542,150.259C169.672,148.28 168.07,134.992 168.66,118.171C152.663,94.005 125.982,64.522 117.858,57.696C104.936,46.837 85.657,48.51 74.798,61.433C63.939,74.355 65.612,93.634 78.535,104.492C88.961,113.253 141.415,145.695 166.994,151.114C168.153,151.359 169.257,151.55 170.299,151.679C174.375,152.187 177.508,151.774 179.316,150.159Z" style="fill:rgb(190,225,217);fill-rule:nonzero;"/>
        <path d="M223.953,168.06C228.247,171.569 237.158,167.771 243.855,159.576C250.553,151.382 252.502,141.893 248.208,138.384C243.914,134.874 235.003,138.672 228.305,146.867C221.607,155.062 219.659,164.55 223.953,168.06Z" style="fill:rgb(254,228,143);fill-rule:nonzero;"/>
        <path d="M222.384,176.323C216.95,175.216 210.831,182.725 208.718,193.095C206.604,203.466 209.296,212.771 214.73,213.878C220.165,214.985 226.283,207.476 228.396,197.105C230.51,186.735 227.818,177.43 222.384,176.323Z" style="fill:rgb(254,228,143);fill-rule:nonzero;"/>
        <path d="M233.909,177.782C232.498,184.706 237.117,191.494 244.225,192.942C251.333,194.391 258.238,189.952 259.648,183.028C261.061,176.104 256.441,169.316 249.334,167.868C242.227,166.419 235.32,170.858 233.909,177.782Z" style="fill:rgb(254,228,143);fill-rule:nonzero;"/>
    </g>
</svg>
